<?xml version="1.0" standalone="no"?><!DOCTYPE svg PUBLIC "-//W3C//DTD SVG 1.1//EN"
  "http://www.w3.org/Graphics/SVG/1.1/DTD/svg11.dtd">
<svg t="1665995212317" class="icon" viewBox="0 0 1024 1024" version="1.1" xmlns="http://www.w3.org/2000/svg" p-id="5655"
     width="200" height="200">
  <path
    d="M507.392 0l443.434667 256v512l-443.434667 256L64 768V256l443.392-256zM272.042667 735.061333a102.016 102.016 0 0 0 143.872 0l86.314666-86.314666c-32.426667 3.584-61.141333-3.584-82.773333-25.173334l-57.514667 57.557334c-10.794667 10.794667-25.173333 10.794667-35.968 0l-7.168-7.210667c-10.794667-10.794667-10.794667-25.173333 0-35.968l71.936-71.936 68.309334-68.309333 46.762666-46.762667 3.584-3.584c10.794667-10.794667 25.173333-10.794667 35.968 0l7.210667 7.168 3.584 3.626667 57.557333-57.6-3.626666-3.541334-7.168-7.210666a102.016 102.016 0 0 0-143.872 0l-194.218667 194.218666a102.016 102.016 0 0 0 0 143.829334l7.210667 7.210666z m140.245333-140.245333a102.016 102.016 0 0 0 143.872 0l194.218667-194.218667a102.016 102.016 0 0 0 0-143.872l-7.210667-7.168a102.016 102.016 0 0 0-143.872 0l-86.314667 86.314667c28.8 0 57.6 7.168 79.146667 28.757333l61.141333-61.141333c10.794667-10.794667 25.173333-10.794667 35.968 0l7.168 7.210667c10.794667 10.794667 10.794667 25.173333 0 35.968L624.469333 418.56l-68.309333 68.352-32.384 32.384-21.546667 21.546667c-10.794667 10.794667-25.173333 10.794667-35.968 0l-7.210666-7.168-3.584-3.626667-53.973334 53.973333 3.626667 3.584 7.168 7.210667z"
    fill="#42d3a5" p-id="5656"></path>
</svg>
